<svg xmlns="http://www.w3.org/2000/svg" width="1536" height="1024" viewBox="0 0 1536 1024" role="img" aria-label="USED CARS logo">
<rect width="100%" height="100%" fill="#ffffff"/>
<path d="M 765.0 705.0 L 764.0 709.0 L 768.0 710.0 L 769.0 705.0 Z M 1178.0 705.0 L 1177.0 708.0 L 1179.0 710.0 L 1182.0 710.0 L 1183.0 706.0 L 1180.0 704.0 Z M 164.0 693.0 L 164.0 697.0 L 355.0 697.0 L 354.0 692.0 L 165.0 692.0 Z M 1045.0 690.0 L 1047.0 690.0 L 1050.0 696.0 L 1049.0 699.0 L 1043.0 699.0 L 1042.0 698.0 L 1043.0 693.0 Z M 849.0 687.0 L 850.0 686.0 L 859.0 686.0 L 861.0 688.0 L 861.0 693.0 L 858.0 696.0 L 850.0 696.0 L 849.0 695.0 Z M 809.0 686.0 L 818.0 686.0 L 824.0 692.0 L 824.0 699.0 L 817.0 706.0 L 809.0 706.0 L 808.0 705.0 L 808.0 687.0 Z M 627.0 687.0 L 628.0 686.0 L 637.0 686.0 L 639.0 689.0 L 639.0 693.0 L 636.0 696.0 L 628.0 696.0 L 627.0 695.0 Z M 438.0 687.0 L 439.0 686.0 L 448.0 686.0 L 450.0 688.0 L 450.0 693.0 L 447.0 696.0 L 439.0 696.0 L 438.0 695.0 Z M 398.0 686.0 L 407.0 686.0 L 412.0 690.0 L 413.0 699.0 L 408.0 705.0 L 405.0 706.0 L 398.0 706.0 L 397.0 705.0 L 397.0 687.0 Z M 1146.0 682.0 L 1146.0 710.0 L 1165.0 710.0 L 1165.0 706.0 L 1151.0 706.0 L 1150.0 705.0 L 1150.0 698.0 L 1151.0 697.0 L 1163.0 697.0 L 1162.0 693.0 L 1151.0 693.0 L 1150.0 692.0 L 1150.0 687.0 L 1151.0 686.0 L 1164.0 686.0 L 1165.0 682.0 Z M 1106.0 682.0 L 1106.0 703.0 L 1108.0 707.0 L 1114.0 710.0 L 1124.0 709.0 L 1128.0 705.0 L 1129.0 702.0 L 1129.0 682.0 L 1125.0 682.0 L 1124.0 702.0 L 1120.0 706.0 L 1115.0 706.0 L 1111.0 703.0 L 1110.0 701.0 L 1110.0 682.0 Z M 1074.0 682.0 L 1074.0 710.0 L 1092.0 710.0 L 1092.0 706.0 L 1080.0 706.0 L 1079.0 705.0 L 1079.0 682.0 Z M 1043.0 682.0 L 1037.0 699.0 L 1032.0 709.0 L 1037.0 710.0 L 1040.0 703.0 L 1052.0 703.0 L 1055.0 709.0 L 1059.0 710.0 L 1060.0 709.0 L 1049.0 682.0 Z M 997.0 682.0 L 1007.0 709.0 L 1012.0 710.0 L 1024.0 682.0 L 1019.0 682.0 L 1011.0 702.0 L 1009.0 701.0 L 1002.0 682.0 Z M 944.0 682.0 L 944.0 709.0 L 945.0 710.0 L 963.0 710.0 L 964.0 706.0 L 950.0 706.0 L 949.0 705.0 L 949.0 698.0 L 950.0 697.0 L 961.0 697.0 L 961.0 694.0 L 950.0 694.0 L 949.0 693.0 L 949.0 687.0 L 950.0 686.0 L 963.0 686.0 L 963.0 682.0 Z M 902.0 682.0 L 905.0 687.0 L 913.0 709.0 L 918.0 710.0 L 926.0 692.0 L 929.0 682.0 L 924.0 682.0 L 917.0 701.0 L 914.0 700.0 L 908.0 682.0 Z M 883.0 682.0 L 883.0 710.0 L 887.0 710.0 L 887.0 682.0 Z M 845.0 682.0 L 845.0 710.0 L 849.0 710.0 L 849.0 701.0 L 850.0 700.0 L 855.0 700.0 L 862.0 710.0 L 866.0 710.0 L 861.0 701.0 L 861.0 699.0 L 864.0 697.0 L 866.0 693.0 L 866.0 688.0 L 864.0 684.0 L 861.0 682.0 Z M 804.0 682.0 L 804.0 710.0 L 816.0 710.0 L 824.0 707.0 L 827.0 704.0 L 829.0 699.0 L 829.0 692.0 L 826.0 686.0 L 820.0 682.0 Z M 732.0 682.0 L 733.0 686.0 L 740.0 686.0 L 741.0 687.0 L 741.0 709.0 L 745.0 710.0 L 746.0 709.0 L 746.0 687.0 L 747.0 686.0 L 754.0 686.0 L 754.0 682.0 Z M 660.0 682.0 L 660.0 703.0 L 665.0 709.0 L 668.0 710.0 L 675.0 710.0 L 681.0 707.0 L 683.0 703.0 L 683.0 682.0 L 679.0 682.0 L 679.0 700.0 L 678.0 703.0 L 674.0 706.0 L 669.0 706.0 L 665.0 703.0 L 664.0 699.0 L 664.0 682.0 Z M 622.0 682.0 L 622.0 700.0 L 623.0 701.0 L 622.0 709.0 L 626.0 710.0 L 627.0 709.0 L 627.0 701.0 L 628.0 700.0 L 633.0 700.0 L 640.0 710.0 L 644.0 710.0 L 639.0 701.0 L 639.0 699.0 L 643.0 695.0 L 644.0 692.0 L 643.0 686.0 L 638.0 682.0 Z M 586.0 682.0 L 586.0 686.0 L 593.0 686.0 L 594.0 687.0 L 594.0 709.0 L 598.0 710.0 L 599.0 709.0 L 599.0 687.0 L 600.0 686.0 L 607.0 686.0 L 607.0 682.0 Z M 533.0 682.0 L 533.0 710.0 L 552.0 710.0 L 552.0 706.0 L 538.0 706.0 L 537.0 705.0 L 537.0 698.0 L 538.0 697.0 L 550.0 697.0 L 550.0 694.0 L 539.0 694.0 L 537.0 692.0 L 537.0 687.0 L 538.0 686.0 L 551.0 686.0 L 552.0 682.0 Z M 491.0 682.0 L 502.0 710.0 L 507.0 710.0 L 518.0 682.0 L 513.0 682.0 L 505.0 702.0 L 503.0 701.0 L 497.0 683.0 L 496.0 682.0 Z M 472.0 682.0 L 472.0 710.0 L 476.0 710.0 L 476.0 682.0 Z M 433.0 682.0 L 433.0 689.0 L 434.0 690.0 L 434.0 708.0 L 433.0 709.0 L 438.0 710.0 L 438.0 701.0 L 439.0 700.0 L 444.0 700.0 L 451.0 710.0 L 455.0 710.0 L 455.0 708.0 L 450.0 701.0 L 450.0 699.0 L 455.0 694.0 L 455.0 688.0 L 453.0 684.0 L 450.0 682.0 Z M 393.0 682.0 L 393.0 710.0 L 405.0 710.0 L 413.0 707.0 L 418.0 698.0 L 418.0 693.0 L 414.0 685.0 L 409.0 682.0 Z M 707.0 681.0 L 700.0 685.0 L 699.0 691.0 L 703.0 696.0 L 713.0 699.0 L 715.0 703.0 L 712.0 706.0 L 706.0 706.0 L 701.0 703.0 L 698.0 706.0 L 705.0 710.0 L 713.0 710.0 L 719.0 705.0 L 719.0 699.0 L 715.0 695.0 L 707.0 693.0 L 704.0 690.0 L 704.0 687.0 L 707.0 685.0 L 710.0 685.0 L 716.0 688.0 L 718.0 684.0 L 715.0 682.0 Z M 694.0 526.0 L 698.0 532.0 L 698.0 544.0 L 688.0 575.0 L 683.0 584.0 L 676.0 591.0 L 667.0 595.0 L 661.0 595.0 L 660.0 596.0 L 627.0 596.0 L 626.0 592.0 L 641.0 548.0 L 641.0 545.0 L 646.0 532.0 L 648.0 523.0 L 649.0 522.0 L 683.0 522.0 L 691.0 524.0 Z M 1422.0 516.0 L 1421.0 516.0 L 1418.0 523.0 L 1409.0 532.0 L 1401.0 536.0 L 1380.0 541.0 L 1362.0 543.0 L 1357.0 545.0 L 1351.0 551.0 L 1335.0 604.0 L 1329.0 615.0 L 1318.0 625.0 L 1378.0 624.0 L 1394.0 621.0 L 1401.0 616.0 L 1402.0 613.0 L 1401.0 609.0 L 1387.0 599.0 L 1387.0 593.0 L 1389.0 590.0 L 1395.0 572.0 L 1400.0 563.0 L 1413.0 553.0 L 1420.0 544.0 L 1423.0 534.0 Z M 622.0 494.0 L 580.0 625.0 L 667.0 625.0 L 668.0 624.0 L 678.0 623.0 L 691.0 618.0 L 703.0 610.0 L 711.0 602.0 L 721.0 585.0 L 727.0 569.0 L 735.0 540.0 L 736.0 525.0 L 733.0 513.0 L 729.0 507.0 L 722.0 501.0 L 716.0 498.0 L 705.0 495.0 L 700.0 495.0 L 699.0 494.0 Z M 595.0 494.0 L 515.0 494.0 L 499.0 498.0 L 490.0 503.0 L 483.0 510.0 L 479.0 516.0 L 473.0 532.0 L 473.0 535.0 L 465.0 557.0 L 465.0 560.0 L 452.0 600.0 L 452.0 610.0 L 454.0 615.0 L 460.0 621.0 L 470.0 625.0 L 554.0 625.0 L 563.0 596.0 L 495.0 596.0 L 491.0 592.0 L 493.0 582.0 L 497.0 572.0 L 562.0 572.0 L 571.0 545.0 L 507.0 545.0 L 506.0 542.0 L 509.0 533.0 L 513.0 526.0 L 521.0 522.0 L 585.0 522.0 L 587.0 519.0 L 590.0 507.0 Z M 192.0 494.0 L 191.0 500.0 L 185.0 516.0 L 185.0 519.0 L 165.0 581.0 L 164.0 601.0 L 168.0 611.0 L 176.0 619.0 L 188.0 624.0 L 198.0 626.0 L 240.0 626.0 L 256.0 623.0 L 267.0 618.0 L 273.0 614.0 L 284.0 603.0 L 291.0 590.0 L 322.0 494.0 L 285.0 494.0 L 281.0 510.0 L 277.0 519.0 L 277.0 522.0 L 271.0 538.0 L 271.0 541.0 L 269.0 544.0 L 269.0 547.0 L 261.0 569.0 L 259.0 578.0 L 255.0 586.0 L 249.0 592.0 L 238.0 596.0 L 214.0 596.0 L 206.0 593.0 L 203.0 590.0 L 202.0 587.0 L 202.0 579.0 L 204.0 575.0 L 206.0 565.0 L 229.0 494.0 Z M 455.0 495.0 L 454.0 494.0 L 416.0 494.0 L 415.0 493.0 L 377.0 494.0 L 360.0 499.0 L 347.0 508.0 L 338.0 520.0 L 333.0 532.0 L 331.0 540.0 L 331.0 555.0 L 333.0 559.0 L 340.0 566.0 L 351.0 570.0 L 394.0 574.0 L 399.0 579.0 L 398.0 587.0 L 393.0 593.0 L 384.0 596.0 L 315.0 595.0 L 306.0 625.0 L 349.0 625.0 L 350.0 626.0 L 390.0 625.0 L 402.0 622.0 L 415.0 615.0 L 425.0 605.0 L 431.0 594.0 L 436.0 577.0 L 436.0 563.0 L 435.0 560.0 L 429.0 553.0 L 419.0 548.0 L 409.0 546.0 L 401.0 546.0 L 400.0 545.0 L 386.0 545.0 L 385.0 544.0 L 373.0 543.0 L 368.0 538.0 L 369.0 531.0 L 374.0 525.0 L 380.0 522.0 L 446.0 523.0 L 446.0 520.0 L 453.0 501.0 L 453.0 498.0 Z M 156.0 497.0 L 169.0 475.0 L 183.0 459.0 L 198.0 449.0 L 223.0 441.0 L 244.0 438.0 L 245.0 437.0 L 251.0 437.0 L 252.0 436.0 L 259.0 436.0 L 260.0 435.0 L 288.0 433.0 L 289.0 432.0 L 302.0 432.0 L 303.0 431.0 L 320.0 431.0 L 321.0 430.0 L 384.0 429.0 L 385.0 430.0 L 421.0 430.0 L 422.0 431.0 L 453.0 431.0 L 455.0 432.0 L 456.0 431.0 L 447.0 430.0 L 442.0 428.0 L 407.0 421.0 L 402.0 421.0 L 374.0 415.0 L 363.0 414.0 L 358.0 412.0 L 353.0 412.0 L 352.0 410.0 L 368.0 398.0 L 387.0 387.0 L 430.0 366.0 L 473.0 349.0 L 511.0 337.0 L 543.0 329.0 L 568.0 324.0 L 585.0 322.0 L 586.0 321.0 L 614.0 318.0 L 615.0 317.0 L 623.0 317.0 L 624.0 316.0 L 647.0 315.0 L 648.0 314.0 L 693.0 313.0 L 694.0 314.0 L 727.0 315.0 L 728.0 316.0 L 736.0 316.0 L 737.0 317.0 L 761.0 320.0 L 783.0 325.0 L 817.0 336.0 L 844.0 347.0 L 893.0 372.0 L 949.0 406.0 L 952.0 410.0 L 951.0 411.0 L 942.0 411.0 L 941.0 412.0 L 910.0 413.0 L 892.0 396.0 L 879.0 388.0 L 866.0 385.0 L 834.0 385.0 L 833.0 386.0 L 823.0 387.0 L 820.0 390.0 L 821.0 401.0 L 827.0 412.0 L 831.0 415.0 L 830.0 417.0 L 739.0 419.0 L 738.0 420.0 L 622.0 420.0 L 621.0 419.0 L 591.0 419.0 L 590.0 418.0 L 557.0 417.0 L 556.0 416.0 L 545.0 416.0 L 544.0 415.0 L 527.0 414.0 L 526.0 413.0 L 501.0 410.0 L 488.0 407.0 L 470.0 400.0 L 462.0 392.0 L 462.0 383.0 L 464.0 379.0 L 471.0 372.0 L 462.0 376.0 L 450.0 386.0 L 448.0 390.0 L 448.0 397.0 L 455.0 405.0 L 460.0 408.0 L 484.0 416.0 L 510.0 420.0 L 511.0 421.0 L 532.0 423.0 L 533.0 424.0 L 560.0 426.0 L 561.0 427.0 L 573.0 427.0 L 574.0 428.0 L 586.0 428.0 L 587.0 429.0 L 602.0 429.0 L 603.0 430.0 L 647.0 431.0 L 648.0 432.0 L 743.0 433.0 L 744.0 432.0 L 815.0 432.0 L 816.0 431.0 L 865.0 431.0 L 866.0 430.0 L 953.0 429.0 L 954.0 428.0 L 1065.0 427.0 L 1066.0 428.0 L 1127.0 429.0 L 1128.0 430.0 L 1143.0 430.0 L 1144.0 431.0 L 1158.0 431.0 L 1159.0 432.0 L 1192.0 434.0 L 1193.0 435.0 L 1201.0 435.0 L 1202.0 436.0 L 1209.0 436.0 L 1210.0 437.0 L 1217.0 437.0 L 1218.0 438.0 L 1250.0 442.0 L 1280.0 448.0 L 1285.0 450.0 L 1289.0 450.0 L 1326.0 460.0 L 1353.0 469.0 L 1378.0 479.0 L 1408.0 494.0 L 1419.0 501.0 L 1406.0 489.0 L 1394.0 480.0 L 1369.0 465.0 L 1329.0 447.0 L 1291.0 434.0 L 1239.0 421.0 L 1234.0 421.0 L 1199.0 414.0 L 1170.0 411.0 L 1169.0 410.0 L 1161.0 410.0 L 1160.0 409.0 L 1127.0 407.0 L 1126.0 406.0 L 1113.0 406.0 L 1112.0 405.0 L 1096.0 405.0 L 1095.0 404.0 L 1071.0 404.0 L 1070.0 403.0 L 1003.0 403.0 L 968.0 382.0 L 922.0 358.0 L 920.0 356.0 L 877.0 335.0 L 841.0 320.0 L 808.0 309.0 L 775.0 301.0 L 770.0 301.0 L 751.0 297.0 L 744.0 297.0 L 743.0 296.0 L 723.0 295.0 L 722.0 294.0 L 704.0 294.0 L 703.0 293.0 L 661.0 293.0 L 660.0 294.0 L 627.0 295.0 L 626.0 296.0 L 598.0 298.0 L 597.0 299.0 L 590.0 299.0 L 589.0 300.0 L 564.0 303.0 L 529.0 310.0 L 524.0 312.0 L 520.0 312.0 L 496.0 319.0 L 485.0 321.0 L 420.0 342.0 L 352.0 369.0 L 338.0 376.0 L 269.0 405.0 L 226.0 420.0 L 178.0 433.0 L 175.0 436.0 L 170.0 448.0 L 163.0 469.0 Z" fill="#03172A" fill-rule="evenodd"/>
<path d="M 1213.0 693.0 L 1214.0 697.0 L 1220.0 697.0 L 1221.0 696.0 L 1231.0 696.0 L 1232.0 697.0 L 1295.0 697.0 L 1296.0 696.0 L 1314.0 696.0 L 1315.0 697.0 L 1388.0 697.0 L 1389.0 696.0 L 1394.0 696.0 L 1395.0 697.0 L 1399.0 696.0 L 1400.0 697.0 L 1400.0 693.0 Z M 968.0 531.0 L 969.0 532.0 L 971.0 574.0 L 970.0 575.0 L 939.0 575.0 L 938.0 572.0 L 964.0 533.0 L 966.0 531.0 Z M 1087.0 555.0 L 1088.0 548.0 L 1090.0 545.0 L 1096.0 523.0 L 1098.0 521.0 L 1131.0 521.0 L 1132.0 522.0 L 1137.0 522.0 L 1144.0 529.0 L 1144.0 535.0 L 1139.0 547.0 L 1134.0 552.0 L 1130.0 554.0 L 1122.0 556.0 L 1088.0 556.0 Z M 1317.0 520.0 L 1314.0 519.0 L 1293.0 504.0 L 1275.0 494.0 L 1251.0 494.0 L 1250.0 495.0 L 1240.0 496.0 L 1232.0 499.0 L 1222.0 505.0 L 1212.0 516.0 L 1205.0 532.0 L 1203.0 540.0 L 1203.0 554.0 L 1205.0 559.0 L 1211.0 565.0 L 1224.0 570.0 L 1240.0 571.0 L 1241.0 572.0 L 1255.0 572.0 L 1256.0 573.0 L 1266.0 574.0 L 1271.0 579.0 L 1270.0 586.0 L 1264.0 594.0 L 1259.0 596.0 L 1188.0 596.0 L 1179.0 625.0 L 1258.0 625.0 L 1259.0 624.0 L 1269.0 623.0 L 1280.0 619.0 L 1290.0 612.0 L 1297.0 604.0 L 1305.0 586.0 L 1307.0 578.0 L 1307.0 563.0 L 1306.0 560.0 L 1300.0 553.0 L 1289.0 548.0 L 1278.0 547.0 L 1277.0 546.0 L 1246.0 544.0 L 1240.0 540.0 L 1239.0 534.0 L 1241.0 529.0 L 1246.0 524.0 L 1255.0 521.0 L 1286.0 521.0 L 1287.0 522.0 L 1316.0 523.0 Z M 1071.0 494.0 L 1029.0 625.0 L 1064.0 625.0 L 1077.0 587.0 L 1077.0 584.0 L 1079.0 581.0 L 1103.0 581.0 L 1105.0 583.0 L 1121.0 625.0 L 1162.0 625.0 L 1140.0 578.0 L 1142.0 576.0 L 1145.0 576.0 L 1157.0 570.0 L 1166.0 562.0 L 1171.0 555.0 L 1176.0 544.0 L 1180.0 530.0 L 1180.0 516.0 L 1176.0 507.0 L 1168.0 500.0 L 1152.0 495.0 L 1144.0 495.0 L 1143.0 494.0 Z M 995.0 494.0 L 961.0 494.0 L 864.0 625.0 L 902.0 625.0 L 920.0 600.0 L 972.0 600.0 L 974.0 604.0 L 975.0 625.0 L 1012.0 625.0 Z M 883.0 495.0 L 814.0 494.0 L 792.0 500.0 L 782.0 506.0 L 775.0 512.0 L 767.0 522.0 L 760.0 535.0 L 747.0 577.0 L 746.0 599.0 L 748.0 606.0 L 751.0 611.0 L 760.0 619.0 L 773.0 624.0 L 778.0 624.0 L 779.0 625.0 L 813.0 626.0 L 814.0 625.0 L 840.0 625.0 L 841.0 624.0 L 846.0 624.0 L 846.0 621.0 L 854.0 596.0 L 795.0 596.0 L 789.0 594.0 L 783.0 587.0 L 783.0 575.0 L 785.0 571.0 L 785.0 568.0 L 794.0 541.0 L 797.0 535.0 L 803.0 528.0 L 812.0 523.0 L 822.0 522.0 L 823.0 521.0 L 873.0 523.0 Z M 1203.0 463.0 L 1221.0 468.0 L 1224.0 470.0 L 1244.0 476.0 L 1247.0 478.0 L 1282.0 490.0 L 1293.0 496.0 L 1314.0 511.0 L 1326.0 516.0 L 1363.0 516.0 L 1364.0 515.0 L 1386.0 514.0 L 1395.0 512.0 L 1400.0 508.0 L 1400.0 506.0 L 1379.0 497.0 L 1342.0 485.0 L 1322.0 480.0 L 1318.0 480.0 L 1293.0 474.0 L 1269.0 471.0 L 1268.0 470.0 Z" fill="#0067B9" fill-rule="evenodd"/>
</svg>